<svg width="16" height="16" fill="currentColor" class="bi bi-webcam" viewBox="0 0 16 16" xmlns="http://www.w3.org/2000/svg">
	<path d="M 2 4 A 2 2 0 0 0 0 6 L 0 9 A 2 2 0 0 0 2 11 L 6.7304688 11 C 6.5864689 11.162 6.3992186 11.32461 6.1992188 11.474609 A 7 7 0 0 1 5.5605469 11.896484 A 5 5 0 0 1 5.2929688 12.044922 L 5.2792969 12.050781 L 5.2753906 12.052734 A 0.5 0.5 0 0 0 5.5 13 L 10.5 13 A 0.5 0.5 0 0 0 10.785156 12.900391 L 9.7226562 11.412109 C 9.5528165 11.279157 9.3940305 11.140062 9.2695312 11 L 9.4296875 11 L 8.7148438 10 L 2 10 A 1 1 0 0 1 1 9 L 1 6 A 1 1 0 0 1 2 5 L 5.1425781 5 L 4.4277344 4 L 2 4 z M 6.5683594 4 L 7.28125 5 L 14 5 A 1 1 0 0 1 15 6 L 15 9 A 1 1 0 0 1 14 10 L 10.853516 10 L 11.568359 11 L 14 11 A 2 2 0 0 0 16 9 L 16 6 A 2 2 0 0 0 14 4 L 6.5683594 4 z " />
	<path d="M 8 5.5 A 2 2 0 0 0 7.6582031 5.53125 L 8.4199219 6.5976562 A 1 1 0 0 1 8.9921875 7.3984375 L 9.75 8.4609375 A 2 2 0 0 0 10 7.5 A 2 2 0 0 0 8 5.5 z M 6.2460938 6.546875 A 2 2 0 0 0 6 7.5 A 2 2 0 0 0 8.3339844 9.4707031 L 7.5683594 8.3964844 A 1 1 0 0 1 7.0078125 7.6132812 L 6.2460938 6.546875 z M 12.414062 7.0078125 A 0.5 0.5 0 0 0 12 7.5 A 0.5 0.5 0 0 0 13 7.5 A 0.5 0.5 0 0 0 12.414062 7.0078125 z " />
	<path d="m 11.259194,12.690642 -6.9999998,-9.8000021 0.5700004,-0.406 6.9999994,9.8000021 z" />
</svg>
