<!-- Generated by IcoMoon.io -->
<svg version="1.1" xmlns="http://www.w3.org/2000/svg" width="16" height="16" viewBox="0 0 16 16">
<title>audio-mute</title>
<path d="M7.313 4.172q0.109 0.063 0.18 0.164t0.070 0.227v6.875q0 0.172-0.125 0.305t-0.313 0.133q-0.078 0-0.141-0.031l-0.125-0.063-2.031-1.625h-2q-0.172 0-0.297-0.133t-0.125-0.305v0-3.438q0-0.172 0.125-0.305t0.297-0.133h2l2.031-1.625 0.125-0.063t0.141-0.031q0.063 0 0.109 0.016t0.078 0.031v0 0zM6.703 5.453l-1.453 1.156q-0.063 0.047-0.125 0.070t-0.141 0.023h-1.719v2.594h1.719q0.078 0 0.141 0.023t0.125 0.070v0l1.453 1.156v-5.094zM13.453 5.969q0.063 0.063 0.094 0.141t0.031 0.172-0.031 0.172-0.094 0.125l-1.422 1.422 1.422 1.422q0.063 0.047 0.094 0.125t0.031 0.172q0 0.172-0.125 0.305t-0.313 0.133q-0.078 0-0.156-0.039t-0.141-0.086v0l-1.422-1.422-1.406 1.422q-0.063 0.047-0.141 0.086t-0.172 0.039q-0.172 0-0.297-0.133t-0.125-0.305q0-0.094 0.031-0.172t0.094-0.125v0l1.406-1.422-1.406-1.422q-0.063-0.047-0.094-0.125t-0.031-0.172q0-0.172 0.125-0.305t0.297-0.133q0.094 0 0.172 0.039t0.141 0.086l1.406 1.422 1.422-1.422q0.063-0.047 0.141-0.086t0.156-0.039q0.094 0 0.172 0.039t0.141 0.086v0 0z"></path>
</svg>
