<!-- Generated by IcoMoon.io -->
<svg version="1.1" xmlns="http://www.w3.org/2000/svg" width="16" height="16" viewBox="0 0 16 16">
<title>audio-loud</title>
<path d="M11.453 13.172q0.5-0.5 0.891-1.078 0.406-0.594 0.68-1.25t0.43-1.359q0.141-0.719 0.141-1.469v-0.031q0-0.75-0.141-1.469-0.156-0.703-0.43-1.359t-0.664-1.25q-0.406-0.578-0.906-1.078v0l-0.609 0.609q0.438 0.438 0.797 0.953 0.344 0.516 0.594 1.094t0.375 1.203q0.125 0.641 0.125 1.297v0.016q0 0.672-0.125 1.297-0.125 0.641-0.375 1.219t-0.594 1.094q-0.359 0.516-0.797 0.953zM10.25 11.953q0.75-0.766 1.188-1.781t0.438-2.172v0 0 0 0 0q0-1.156-0.438-2.172t-1.188-1.781v0l-0.609 0.609q0.641 0.641 1.008 1.5t0.367 1.844v0 0 0 0 0q0 0.984-0.367 1.844t-1.008 1.5v0zM10.156 8v0 0q0 0.813-0.305 1.516t-0.82 1.219v0l-0.609-0.609q0.406-0.406 0.641-0.953t0.234-1.172v0 0 0q0-0.625-0.234-1.172t-0.641-0.953l0.609-0.609q0.516 0.516 0.82 1.219t0.305 1.516v0 0 0 0zM7.563 4.563q0-0.172-0.125-0.305t-0.313-0.133q-0.078 0-0.141 0.031l-0.125 0.063-2.031 1.625h-2q-0.172 0-0.297 0.133t-0.125 0.305v0 3.438q0 0.172 0.125 0.305t0.297 0.133h2l2.031 1.625 0.125 0.063t0.141 0.031q0.188 0 0.313-0.133t0.125-0.305v0-6.875zM5.25 6.609l1.453-1.156v5.094l-1.453-1.156q-0.063-0.047-0.125-0.070t-0.141-0.023h-1.719v-2.594h1.719q0.078 0 0.141-0.023t0.125-0.070v0 0z"></path>
</svg>
