<!-- Generated by IcoMoon.io -->
<svg version="1.1" xmlns="http://www.w3.org/2000/svg" width="16" height="16" viewBox="0 0 16 16">
	<title>camera-mute</title>
	<path d="M9.815 13.103l-7-9.8 0.57-0.406 7 9.8z" fill="currentColor"></path>
	<path d="M10.073 11.056c0.193-0.205 0.325-0.471 0.365-0.765l0.001-0.007 2.177 0.967c0.084 0.038 0.182 0.061 0.285 0.061 0.386 0 0.7-0.313 0.7-0.7v-5.223c-0-0.386-0.314-0.699-0.7-0.699-0.103 0-0.201 0.022-0.289 0.062l0.004-0.002-2.178 0.967c-0.094-0.69-0.679-1.217-1.388-1.217-0 0-0 0-0 0h-3.66l4.683 6.556zM2.993 4.755c-0.361 0.257-0.593 0.673-0.593 1.144 0 0 0 0 0 0v-0 4.2c0 0.773 0.627 1.4 1.4 1.4v0h4.010l-4.817-6.744z"></path>
	</svg>
	