<!-- Generated by IcoMoon.io -->
<svg version="1.1" xmlns="http://www.w3.org/2000/svg" width="16" height="16" viewBox="0 0 16 16">
<title>camera</title>
<path d="M2.406 5.906q0-0.594 0.406-1t0.984-0.406v0h5.25q0.531 0 0.93 0.352t0.461 0.852v0.016l2.172-0.969q0.063-0.031 0.141-0.047t0.156-0.016q0.281 0 0.484 0.203t0.203 0.5v5.219q0 0.297-0.203 0.5t-0.484 0.203q-0.078 0-0.156-0.016t-0.141-0.047v0l-2.172-0.969q-0.063 0.516-0.461 0.867t-0.93 0.352v0 0h-5.25q-0.578 0-0.984-0.406t-0.406-1v0-4.188z"></path>
</svg>
