<!-- Generated by IcoMoon.io -->
<svg version="1.1" xmlns="http://www.w3.org/2000/svg" width="16" height="16" viewBox="0 0 16 16">
<title>chat</title>
<path d="M4.281 10.406q0.094 0.094 0.148 0.219t0.055 0.266v0.039t-0.016 0.039v-0.016q-0.031 0.406-0.109 0.766t-0.172 0.703l0.016-0.063q0.719-0.172 1.18-0.344t0.664-0.281q0.063-0.031 0.141-0.055t0.172-0.023q0.047 0 0.094 0.008t0.094 0.023h-0.016q0.328 0.094 0.703 0.141t0.75 0.047h0.016q1.047 0 1.953-0.344 0.891-0.344 1.547-0.922t1.031-1.344q0.375-0.75 0.375-1.594 0-0.828-0.375-1.594t-1.031-1.344-1.547-0.922q-0.906-0.344-1.953-0.344t-1.953 0.344q-0.891 0.344-1.547 0.922t-1.031 1.344-0.375 1.594q0 0.766 0.313 1.469t0.875 1.266v0zM3.922 13.141q-0.047 0-0.164 0.023t-0.242 0.055h-0.078q-0.109 0.016-0.172-0.070t-0.031-0.18q0.047-0.078 0.086-0.18t0.070-0.211l0.016-0.047v-0.016q0.141-0.375 0.234-0.797t0.141-0.828q-0.641-0.641-1.008-1.469t-0.367-1.75q0-1.016 0.438-1.906t1.195-1.555 1.773-1.055q1.031-0.375 2.188-0.375t2.172 0.375q1.031 0.391 1.789 1.055t1.195 1.555 0.438 1.906-0.438 1.906-1.195 1.555-1.789 1.055q-1.016 0.391-2.172 0.391v0h-0.016q-0.422 0-0.844-0.063t-0.828-0.172l0.047 0.016q-0.281 0.141-0.875 0.359t-1.563 0.422v0zM5.203 6.25q0-0.141 0.102-0.242t0.242-0.102v0h4.906q0.141 0 0.242 0.102t0.102 0.242-0.102 0.242-0.242 0.102v0h-4.906q-0.141 0-0.242-0.102t-0.102-0.242v0 0zM5.203 8q0-0.141 0.102-0.242t0.242-0.102v0h4.906q0.141 0 0.242 0.102t0.102 0.242-0.102 0.242-0.242 0.102v0h-4.906q-0.141 0-0.242-0.102t-0.102-0.242v0 0zM5.203 9.75q0-0.141 0.102-0.242t0.242-0.102v0h2.797q0.156 0 0.258 0.102t0.102 0.242-0.102 0.242-0.258 0.102v0h-2.797q-0.141 0-0.242-0.102t-0.102-0.242v0z"></path>
</svg>
