<!-- Generated by IcoMoon.io -->
<svg version="1.1" xmlns="http://www.w3.org/2000/svg" width="16" height="16" viewBox="0 0 16 16">
<title>clear-tool</title>
<path d="M11.317 11.643c0.127-1.57 0.258-3.14 0.381-4.71 0.059-0.755-0.372-1.213-1.128-1.213-0.844-0.001-1.689-0-2.533-0-0.868 0-1.736-0.002-2.604 0.001-0.639 0.003-1.065 0.397-1.085 1.014-0.006 0.17 0.028 0.34 0.044 0.511 0.166 1.804 0.332 3.607 0.497 5.411 0.049 0.541 0.47 0.94 1.011 0.942 1.446 0.003 2.893 0.003 4.34-0.001 0.538-0.001 0.955-0.394 1-0.93 0.029-0.341 0.049-0.683 0.077-1.023zM6.666 8.463v3.239c0 0.082 0.001 0.164-0.025 0.245-0.075 0.242-0.28 0.393-0.514 0.372-0.237-0.021-0.42-0.203-0.451-0.449-0.006-0.047-0.007-0.094-0.007-0.141 0.001-1.493 0.002-2.985 0.006-4.478 0.001-0.285 0.219-0.493 0.495-0.491 0.269 0.002 0.488 0.214 0.494 0.499 0.008 0.401 0.002 0.802 0.002 1.203zM8.147 12.269c-0.189 0.085-0.369 0.061-0.529-0.074-0.124-0.106-0.174-0.244-0.173-0.408 0.002-0.749 0.001-1.499 0.001-2.248s-0.002-1.499 0.001-2.248c0.002-0.365 0.277-0.593 0.616-0.516 0.229 0.052 0.373 0.251 0.375 0.532 0.003 0.437 0.001 0.873 0.001 1.31 0 1.056-0.001 2.112 0.001 3.168-0 0.221-0.086 0.391-0.292 0.483zM10.212 11.799c-0.011 0.302-0.232 0.525-0.512 0.522-0.269-0.003-0.48-0.228-0.481-0.53-0.003-0.749-0.001-1.498-0.001-2.247v-2.247c0-0.211 0.083-0.38 0.273-0.481 0.178-0.093 0.356-0.073 0.517 0.043 0.15 0.109 0.204 0.262 0.204 0.446-0.003 1.404-0.002 2.808-0.001 4.212 0 0.095 0.006 0.189 0.002 0.283zM10.846 2.427c-0.532 0.131-1.062 0.271-1.591 0.415-0.139 0.038-0.242 0.026-0.348-0.084-0.178-0.182-0.406-0.238-0.652-0.183-0.27 0.061-0.537 0.131-0.804 0.205-0.235 0.065-0.426 0.205-0.489 0.443-0.051 0.195-0.17 0.253-0.343 0.296-0.612 0.149-1.223 0.307-1.832 0.468-0.342 0.090-0.543 0.398-0.493 0.736 0.045 0.299 0.326 0.532 0.647 0.53 0.094 0.008 0.19-0.025 0.287-0.049 1.289-0.331 2.578-0.664 3.868-0.996 0.702-0.181 1.403-0.361 2.104-0.544 0.259-0.067 0.446-0.215 0.499-0.49 0.099-0.513-0.315-0.878-0.853-0.746z"></path>
</svg>
