<!-- Generated by IcoMoon.io -->
<svg version="1.1" xmlns="http://www.w3.org/2000/svg" width="16" height="16" viewBox="0 0 16 16">
<title>clone-tool</title>
<path d="M13.032 8.682h-3.355v-0.786c0-0.118-0.096-0.214-0.214-0.214h-0.642v-1.238c0.754-0.321 1.285-1.069 1.285-1.939 0-1.161-0.945-2.106-2.106-2.106s-2.106 0.945-2.106 2.106c0 0.87 0.53 1.618 1.285 1.939v1.238h-0.642c-0.118 0-0.214 0.096-0.214 0.214v0.786h-3.355c-0.118 0-0.214 0.096-0.214 0.214v3.284c0 0.118 0.096 0.214 0.214 0.214h10.065c0.118 0 0.214-0.096 0.214-0.214v-3.284c-0-0.118-0.096-0.214-0.214-0.214zM6.953 3.852c0-0.302 0.245-0.547 0.547-0.547s0.547 0.245 0.547 0.547c0 0.302-0.245 0.547-0.547 0.547s-0.547-0.245-0.547-0.547zM6.751 8.111h2.498v0.583h-2.498zM12.818 11.965h-9.636v-2.855h9.636zM3.539 13.386c0 0.118 0.096 0.214 0.214 0.214h8.494c0.118 0 0.214-0.096 0.214-0.214v-0.643h-8.923z"></path>
</svg>
