<!-- Generated by IcoMoon.io -->
<svg version="1.1" xmlns="http://www.w3.org/2000/svg" width="16" height="16" viewBox="0 0 16 16">
<title>co-organisator</title>
<path d="M8 2.891q-0.672 0-1.156 0.484t-0.484 1.172q0 0.672 0.484 1.156t1.156 0.484 1.156-0.484 0.484-1.156q0-0.688-0.484-1.172t-1.156-0.484v0zM8 3.547q0.406 0 0.695 0.289t0.289 0.711q0 0.406-0.289 0.695t-0.695 0.289-0.695-0.289-0.289-0.695q0-0.422 0.289-0.711t0.695-0.289v0zM2.734 10.141q-0.141 0-0.234 0.109t-0.094 0.219v2.313q0 0.125 0.094 0.227t0.234 0.102h10.531q0.141 0 0.234-0.102t0.094-0.227v-2.313q0-0.125-0.094-0.227t-0.234-0.102h-10.531zM3.063 10.797h9.875v1.656h-9.875v-1.656zM10.453 10.172v-1.5q0-0.953-0.727-1.641t-1.758-0.688q-0.484 0-0.922 0.164t-0.797 0.477l-1.359 0.922-0.938-0.641q-0.125-0.078-0.258-0.117t-0.273-0.039q-0.25 0-0.453 0.109t-0.344 0.297q-0.219 0.328-0.148 0.719t0.398 0.625l1.531 1.047q0.109 0.063 0.227 0.102t0.242 0.039 0.242-0.039 0.227-0.102l0.141-0.094v0.359h4.969zM4.969 9.344q-0.016 0.016-0.039 0.023t-0.055 0.008-0.055-0.008-0.039-0.023l-1.531-1.047q-0.094-0.063-0.117-0.18t0.039-0.227q0.047-0.047 0.109-0.086t0.141-0.039q0.031 0 0.078 0.016t0.078 0.031l1.297 0.891 1.797-1.188q0.25-0.234 0.578-0.367t0.719-0.133q0.75 0 1.289 0.484t0.539 1.172v1.5h-3.656v-1.609z"></path>
</svg>
