<!-- Generated by IcoMoon.io -->
<svg version="1.1" xmlns="http://www.w3.org/2000/svg" width="16" height="16" viewBox="0 0 16 16">
<title>course-not-available</title>
<path d="M6.703 7.656q0.047-0.047 0.109-0.070t0.141-0.023q0.063 0 0.133 0.023t0.117 0.070v0l0.797 0.813 0.797-0.813q0.047-0.047 0.117-0.070t0.133-0.023q0.141 0 0.25 0.102t0.109 0.242q0 0.078-0.031 0.141t-0.078 0.109l-0.797 0.797 0.797 0.813q0.047 0.047 0.078 0.109t0.031 0.141q0 0.141-0.109 0.242t-0.25 0.102q-0.063 0-0.133-0.023t-0.117-0.070v0l-0.797-0.813-0.797 0.813q-0.047 0.047-0.117 0.070t-0.133 0.023q-0.141 0-0.25-0.102t-0.109-0.242q0-0.078 0.031-0.141t0.078-0.109v0l0.797-0.813-0.797-0.797q-0.047-0.047-0.078-0.109t-0.031-0.141q0-0.063 0.031-0.133t0.078-0.117v0 0zM4.844 2.406q0.156 0 0.258 0.102t0.102 0.242v0 0.344h5.594v-0.344q0-0.141 0.102-0.242t0.258-0.102q0.141 0 0.242 0.102t0.102 0.242v0 0.344h0.703q0.578 0 0.984 0.414t0.406 0.992v0 7.703q0 0.578-0.406 0.984t-0.984 0.406v0h-8.406q-0.578 0-0.984-0.406t-0.406-0.984v0-7.703q0-0.578 0.406-0.992t0.984-0.414v0h0.703v-0.344q0-0.141 0.102-0.242t0.242-0.102v0 0zM3.094 5.203v7q0 0.281 0.211 0.492t0.492 0.211v0h8.406q0.281 0 0.492-0.211t0.211-0.492v0-7h-9.813z"></path>
</svg>
