<!-- Generated by IcoMoon.io -->
<svg version="1.1" xmlns="http://www.w3.org/2000/svg" width="16" height="16" viewBox="0 0 16 16">
<title>document-collection</title>
<path d="M4.15 5.2c-0.193 0-0.35-0.157-0.35-0.35s0.157-0.35 0.35-0.35v0h7.7c0.193 0 0.35 0.157 0.35 0.35s-0.157 0.35-0.35 0.35v0zM5.55 3.8c-0.193 0-0.35-0.157-0.35-0.35s0.157-0.35 0.35-0.35v0h4.9c0.193 0 0.35 0.157 0.35 0.35s-0.157 0.35-0.35 0.35v0zM2.4 11.85c0 0.58 0.47 1.050 1.050 1.050v0h9.1c0.58 0 1.050-0.47 1.050-1.050v0-4.9c0-0.58-0.47-1.050-1.050-1.050v0h-9.1c-0.58 0-1.050 0.47-1.050 1.050v0zM3.45 12.2c-0.193 0-0.35-0.157-0.35-0.35v0-4.9c0-0.193 0.157-0.35 0.35-0.35v0h9.1c0.193 0 0.35 0.157 0.35 0.35v0 4.9c0 0.193-0.157 0.35-0.35 0.35v0z"></path>
</svg>
