<!-- Generated by IcoMoon.io -->
<svg version="1.1" xmlns="http://www.w3.org/2000/svg" width="16" height="16" viewBox="0 0 16 16">
<title>extend-tool</title>
<path d="M8.867 12.4h-0.81c-0.11 0-0.2 0.090-0.2 0.2s0.090 0.2 0.2 0.2h0.81c0.111 0 0.2-0.090 0.2-0.2s-0.090-0.2-0.2-0.2zM6.843 12.4h-0.81c-0.11 0-0.2 0.090-0.2 0.2s0.090 0.2 0.2 0.2h0.81c0.111 0 0.2-0.090 0.2-0.2s-0.090-0.2-0.2-0.2zM4.819 12.4h-0.81c-0.11 0-0.2 0.090-0.2 0.2s0.090 0.2 0.2 0.2h0.81c0.111 0 0.2-0.090 0.2-0.2s-0.090-0.2-0.2-0.2zM8.8 8.2v-4.4c0-0.331-0.269-0.6-0.6-0.6h-4.4c-0.331 0-0.6 0.269-0.6 0.6v4.4c0 0.331 0.269 0.6 0.6 0.6h4.4c0.331 0 0.6-0.269 0.6-0.6zM3.6 8.2v-4.4c0-0.11 0.090-0.2 0.2-0.2h4.4c0.11 0 0.2 0.090 0.2 0.2v4.4c0 0.11-0.090 0.2-0.2 0.2h-4.4c-0.11 0-0.2-0.090-0.2-0.2zM9.4 3.6h0.4c0.11 0 0.2-0.090 0.2-0.2s-0.090-0.2-0.2-0.2h-0.4c-0.11 0-0.2 0.090-0.2 0.2s0.090 0.2 0.2 0.2zM3.4 10.814c-0.11 0-0.2 0.090-0.2 0.2v0.81c0 0.11 0.090 0.2 0.2 0.2s0.2-0.090 0.2-0.2v-0.81c0-0.11-0.090-0.2-0.2-0.2zM3.4 9.2c-0.11 0-0.2 0.090-0.2 0.2v0.4c0 0.11 0.090 0.2 0.2 0.2s0.2-0.090 0.2-0.2v-0.4c0-0.11-0.090-0.2-0.2-0.2zM12.6 7.865c-0.11 0-0.2 0.090-0.2 0.2v0.81c0 0.11 0.090 0.2 0.2 0.2s0.2-0.089 0.2-0.2v-0.81c0-0.11-0.090-0.2-0.2-0.2zM10.891 12.4h-0.81c-0.11 0-0.2 0.090-0.2 0.2s0.090 0.2 0.2 0.2h0.81c0.11 0 0.2-0.090 0.2-0.2s-0.090-0.2-0.2-0.2zM12.6 9.89c-0.11 0-0.2 0.090-0.2 0.2v0.81c0 0.11 0.090 0.2 0.2 0.2s0.2-0.090 0.2-0.2v-0.81c0-0.11-0.090-0.2-0.2-0.2zM12.6 3.818c-0.11 0-0.2 0.090-0.2 0.2v0.81c0 0.11 0.090 0.2 0.2 0.2s0.2-0.090 0.2-0.2v-0.81c0-0.11-0.090-0.2-0.2-0.2zM12.6 5.841c-0.11 0-0.2 0.090-0.2 0.2v0.81c0 0.11 0.090 0.2 0.2 0.2s0.2-0.089 0.2-0.2v-0.81c0-0.11-0.090-0.2-0.2-0.2zM11.4 9.6c-0.11 0-0.2 0.090-0.2 0.2v1.118l-2.059-2.059c-0.078-0.078-0.205-0.078-0.283 0s-0.078 0.205 0 0.283l2.058 2.058h-1.117c-0.11 0-0.2 0.090-0.2 0.2s0.090 0.2 0.2 0.2h1.6c0.026 0 0.052-0.005 0.076-0.016 0.022-0.009 0.042-0.023 0.059-0.039 0.002-0.002 0.004-0.002 0.006-0.004 0.018-0.018 0.033-0.041 0.043-0.065 0.006-0.014 0.006-0.028 0.009-0.043 0.002-0.011 0.007-0.021 0.007-0.033v-1.6c0-0.11-0.090-0.2-0.2-0.2zM12.6 11.913c-0.11 0-0.2 0.090-0.2 0.2v0.087c0 0.11-0.090 0.2-0.2 0.2h-0.094c-0.11 0-0.2 0.090-0.2 0.2s0.090 0.2 0.2 0.2h0.094c0.331 0 0.6-0.269 0.6-0.6v-0.087c0-0.11-0.090-0.2-0.2-0.2zM12.032 3.4c0-0.11-0.090-0.2-0.2-0.2h-0.81c-0.11 0-0.2 0.090-0.2 0.2s0.090 0.2 0.2 0.2h0.81c0.11 0 0.2-0.090 0.2-0.2z"></path>
</svg>
