<!-- Generated by IcoMoon.io -->
<svg version="1.1" xmlns="http://www.w3.org/2000/svg" width="16" height="16" viewBox="0 0 16 16">
<title>fullscreen</title>
<path d="M3.453 3.094q-0.141 0-0.25 0.109t-0.109 0.25v0 2.797q0 0.141-0.102 0.242t-0.242 0.102-0.242-0.102-0.102-0.242v0-2.797q0-0.438 0.305-0.742t0.742-0.305v0h2.797q0.141 0 0.242 0.102t0.102 0.242-0.102 0.242-0.242 0.102v0h-2.797zM9.406 2.75q0-0.141 0.102-0.242t0.242-0.102v0h2.797q0.438 0 0.742 0.305t0.305 0.742v0 2.797q0 0.141-0.102 0.242t-0.242 0.102-0.242-0.102-0.102-0.242v0-2.797q0-0.141-0.109-0.25t-0.25-0.109v0h-2.797q-0.141 0-0.242-0.102t-0.102-0.242v0 0zM2.75 9.406q0.141 0 0.242 0.102t0.102 0.242v0 2.797q0 0.141 0.109 0.25t0.25 0.109v0h2.797q0.141 0 0.242 0.102t0.102 0.242-0.102 0.242-0.242 0.102v0h-2.797q-0.438 0-0.742-0.305t-0.305-0.742v0-2.797q0-0.141 0.102-0.242t0.242-0.102v0 0zM13.25 9.406q0.141 0 0.242 0.102t0.102 0.242v0 2.797q0 0.438-0.305 0.742t-0.742 0.305v0h-2.797q-0.141 0-0.242-0.102t-0.102-0.242 0.102-0.242 0.242-0.102v0h2.797q0.141 0 0.25-0.109t0.109-0.25v0-2.797q0-0.141 0.102-0.242t0.242-0.102v0 0z"></path>
</svg>
