<!-- Generated by IcoMoon.io -->
<svg version="1.1" xmlns="http://www.w3.org/2000/svg" width="16" height="16" viewBox="0 0 16 16">
<title>grid-tool</title>
<path d="M4.243 12.8c-0.115 0-0.209-0.094-0.209-0.209v-9.183c0-0.115 0.093-0.209 0.209-0.209s0.209 0.094 0.209 0.209v9.183c0 0.115-0.093 0.209-0.209 0.209zM6.748 12.8c-0.115 0-0.209-0.094-0.209-0.209v-9.183c0-0.115 0.093-0.209 0.209-0.209s0.209 0.094 0.209 0.209v9.183c0 0.115-0.093 0.209-0.209 0.209zM9.252 12.8c-0.115 0-0.209-0.094-0.209-0.209v-9.183c0-0.115 0.094-0.209 0.209-0.209s0.209 0.094 0.209 0.209v9.183c0 0.115-0.094 0.209-0.209 0.209zM11.757 12.8c-0.115 0-0.209-0.094-0.209-0.209v-9.183c0-0.115 0.094-0.209 0.209-0.209s0.209 0.094 0.209 0.209v9.183c0 0.115-0.094 0.209-0.209 0.209zM12.591 11.965h-9.183c-0.115 0-0.209-0.094-0.209-0.209s0.094-0.209 0.209-0.209h9.183c0.115 0 0.209 0.094 0.209 0.209s-0.094 0.209-0.209 0.209zM12.591 9.461h-9.183c-0.115 0-0.209-0.094-0.209-0.209s0.094-0.209 0.209-0.209h9.183c0.115 0 0.209 0.094 0.209 0.209s-0.094 0.209-0.209 0.209zM12.591 6.957h-9.183c-0.115 0-0.209-0.093-0.209-0.209s0.094-0.209 0.209-0.209h9.183c0.115 0 0.209 0.093 0.209 0.209s-0.094 0.209-0.209 0.209zM12.591 4.452h-9.183c-0.115 0-0.209-0.093-0.209-0.209s0.094-0.209 0.209-0.209h9.183c0.115 0 0.209 0.093 0.209 0.209s-0.094 0.209-0.209 0.209z"></path>
</svg>
