<!-- Generated by IcoMoon.io -->
<svg version="1.1" xmlns="http://www.w3.org/2000/svg" width="16" height="16" viewBox="0 0 16 16">
<title>hand</title>
<path d="M11.297 6.781q-0.313-0.031-0.609 0.102t-0.453 0.43v0.008t-0.016 0.023v0l-0.797 1.922q-0.016 0.031-0.016 0.063v0.078q0 0.109 0.055 0.195t0.148 0.117v0q0.031 0.016 0.070 0.023t0.070 0.008q0.109 0 0.195-0.063t0.133-0.156v0l0.781-1.891q0.063-0.125 0.203-0.156t0.281 0.047v0 0 0 0 0q0.078 0.031 0.102 0.070t0.039 0.102 0.008 0.148-0.039 0.195v0 0 0.016l-1.156 3.125q-0.156 0.375-0.367 0.68t-0.523 0.539q-0.328 0.219-0.789 0.359t-1.148 0.141q-0.656 0-1.195-0.219t-0.93-0.641-0.617-1.078-0.227-1.563q0-0.156-0.102-0.258t-0.242-0.102v0q-0.156 0-0.258 0.102t-0.102 0.258v0q0 1 0.266 1.789t0.766 1.336q0.5 0.531 1.18 0.797t1.461 0.266q0.766 0 1.344-0.164t1-0.461 0.688-0.688 0.453-0.828v0 0-0.016l1.156-3.141q0.063-0.188 0.086-0.375t-0.023-0.391q-0.047-0.188-0.172-0.352t-0.313-0.258q-0.078-0.063-0.18-0.094t-0.211-0.047v0 0zM7.656 2.406q-0.375 0-0.641 0.219t-0.359 0.563q-0.094-0.047-0.195-0.070t-0.211-0.023v0q-0.438 0-0.742 0.313t-0.305 0.75v0.422q-0.094-0.031-0.18-0.055t-0.18-0.023q-0.422 0-0.734 0.313t-0.313 0.734v3.859q0 0.141 0.102 0.242t0.258 0.102v0q0.141 0 0.242-0.102t0.102-0.242v0-3.859q0-0.141 0.102-0.242t0.242-0.102q0.156 0 0.258 0.102t0.102 0.242v2.453q0 0.141 0.102 0.242t0.242 0.102v0q0.141 0 0.25-0.102t0.109-0.242v0 0 0-3.844q0-0.156 0.094-0.258t0.25-0.102q0.141 0 0.242 0.102t0.102 0.258v3.5q0 0.063 0.031 0.125t0.078 0.109v0q0.047 0.047 0.109 0.078t0.141 0.031v0 0 0q0.141 0 0.242-0.102t0.102-0.242v0-4.203q0-0.156 0.102-0.258t0.258-0.102q0.141 0 0.242 0.102t0.102 0.258v4.219q0 0.141 0.102 0.242t0.242 0.102v0q0.156 0 0.258-0.102t0.102-0.242v0-3.172q0-0.141 0.102-0.242t0.242-0.102q0.156 0 0.258 0.102t0.102 0.242v4.906q0 0.141 0.102 0.242t0.242 0.102v0q0.141 0 0.242-0.102t0.102-0.242v0-4.906q0-0.438-0.305-0.742t-0.742-0.305q-0.094 0-0.18 0.016t-0.164 0.047v-0.063q0-0.438-0.313-0.742t-0.734-0.305v0z"></path>
</svg>
