<!-- Generated by IcoMoon.io -->
<svg version="1.1" xmlns="http://www.w3.org/2000/svg" width="16" height="16" viewBox="0 0 16 16">
<title>highlighter-tool</title>
<path d="M13.442 4.455l-0.228-0.228 0.028-0.028c0.015-0.015 0.023-0.035 0.023-0.056s-0.008-0.041-0.023-0.056l-1.124-1.123c-0.031-0.031-0.081-0.031-0.113 0l-0.028 0.028-0.228-0.228c-0.204-0.204-0.56-0.204-0.765 0l-2.48 2.48c-0.031 0.031-0.031 0.081-0 0.112l-5.009 5.009c-0.006 0.006-0.010 0.014-0.014 0.021-0.001 0.001-0.002 0.002-0.002 0.003-0.006 0.014-0.007 0.029-0.004 0.044 0 0.002-0.001 0.003-0 0.005 0.003 0.014 0.3 1.361-0.375 2.036-0.031 0.031-0.031 0.081 0 0.113l0.016 0.016-0.689 0.651c-0.024 0.022-0.031 0.057-0.019 0.087s0.041 0.050 0.074 0.050h0.786c0.021 0 0.041-0.008 0.056-0.023l0.278-0.278 0.017 0.017c0.016 0.016 0.036 0.023 0.056 0.023s0.041-0.008 0.056-0.023c0.367-0.367 0.932-0.444 1.342-0.444 0.388 0 0.691 0.068 0.694 0.069 0.002 0 0.003-0.001 0.005-0 0.004 0.001 0.008 0.003 0.013 0.003 0.011 0 0.021-0.003 0.032-0.007 0.001-0 0.002-0.001 0.002-0.002 0.008-0.004 0.016-0.008 0.022-0.015l5.009-5.010c0.015 0.015 0.035 0.023 0.056 0.023s0.041-0.008 0.056-0.023l2.48-2.48c0.211-0.211 0.211-0.554-0-0.765zM13.072 4.143l-3.194 3.193c-0.112 0.112-0.308 0.112-0.419 0l-0.592-0.592c-0.116-0.116-0.116-0.304 0-0.419l3.193-3.193zM8.648 5.649l0.336 0.336-0.056 0.056-0.336-0.336c-0.016-0.016-0.016-0.041 0-0.056s0.041-0.015 0.056 0zM10.445 7.558l-0.281-0.281 0.056-0.056 0.31 0.31c0.016 0.016 0.016 0.041 0 0.056l-4.557 4.557c-0.008 0.008-0.018 0.012-0.028 0.012s-0.020-0.004-0.028-0.012c-0.016-0.016-0.016-0.041 0-0.056zM5.623 12.493c-0.001 0.001-0.002 0-0.003 0.001-0.004 0.004-0.009 0.004-0.014 0.006-0.004 0.001-0.007 0.004-0.011 0.004-0.001 0-0.002-0.001-0.003-0.001s-0.002 0.001-0.003 0.001c-0.024-0.004-0.051-0.007-0.078-0.011-0.515-0.067-1.398-0.063-1.8 0.34-0.008 0.008-0.018 0.012-0.028 0.012s-0.020-0.004-0.028-0.012c-0.016-0.016-0.016-0.041 0-0.056 0.448-0.448 1.367-0.414 1.766-0.374 0.023 0.002 0.043 0.005 0.063 0.007l-1.652-1.651c-0.016-0.016-0.016-0.041 0-0.056s0.041-0.015 0.056 0l1.734 1.734c0.001 0.001 0 0.002 0.001 0.003 0.003 0.004 0.004 0.009 0.006 0.014s0.004 0.009 0.003 0.014c0 0.001 0.001 0.002 0.001 0.003-0.001 0.004-0.004 0.007-0.006 0.011s-0.002 0.009-0.005 0.012zM11.096 2.875c0.144-0.144 0.396-0.144 0.54 0l0.228 0.228-2.694 2.694-0.498-0.498zM3.233 13.231h-0.553l0.547-0.516 0.152 0.152-0.183 0.183c-0.016 0.016-0.016 0.041 0 0.056 0.008 0.008 0.018 0.012 0.028 0.012s0.020-0.004 0.028-0.012l0.183-0.183 0.053 0.053zM13.329 5.108l-2.424 2.424-0.114-0.114 2.384-2.384c0.107-0.107 0.103-0.285-0.008-0.397-0.016-0.016-0.041-0.016-0.056 0s-0.016 0.041 0 0.056c0.081 0.081 0.084 0.208 0.008 0.285l-2.384 2.384-0.328-0.328 2.694-2.694 0.228 0.228c0.149 0.149 0.149 0.391-0 0.54zM12.717 4.139l-2.931 2.931c-0.016 0.016-0.016 0.041 0 0.056 0.008 0.008 0.018 0.012 0.028 0.012s0.020-0.004 0.028-0.012l2.959-2.959c0.016-0.016 0.016-0.041 0-0.056l-0.69-0.69c-0.016-0.016-0.041-0.016-0.056 0s-0.016 0.041 0 0.056z"></path>
</svg>
