<!-- Generated by IcoMoon.io -->
<svg version="1.1" xmlns="http://www.w3.org/2000/svg" width="16" height="16" viewBox="0 0 16 16">
<title>latex-tool</title>
<path d="M6.363 5.010h-3.851l-0.113 1.475h0.12c0.086-1.105 0.181-1.298 1.215-1.298 0.12 0 0.315 0 0.368 0 0.127 0.020 0.127 0.101 0.127 0.254v3.63c0 0.241-0.020 0.315-0.582 0.315h-0.189v0.161c0.32-0.006 0.653-0.013 0.98-0.013s0.66 0.007 0.98 0.013v-0.161h-0.186c-0.553 0-0.573-0.074-0.573-0.315v-3.63c0-0.147 0-0.227 0.12-0.254h0.366c1.020 0 1.12 0.192 1.206 1.298h0.12zM9.709 9.314h-0.12c-0.146 0.989-0.232 1.526-1.405 1.526h-0.926c-0.266 0-0.279-0.034-0.279-0.263v-1.864h0.629c0.629 0 0.689 0.231 0.689 0.793h0.107v-1.735h-0.107c0 0.553-0.060 0.78-0.689 0.78h-0.629v-1.653c0-0.225 0.013-0.259 0.279-0.259h0.912c1.032 0 1.152 0.41 1.245 1.292h0.12l-0.16-1.475h-3.376v0.183c0.472 0 0.548 0 0.548 0.3v3.599c0 0.3-0.075 0.3-0.548 0.3v0.161h3.47zM11.507 7.023l0.987-1.426c0.099-0.14 0.3-0.428 0.847-0.435v-0.161c-0.153 0.013-0.406 0.013-0.566 0.013-0.22 0-0.493 0-0.659-0.013v0.161c0.214 0.020 0.266 0.153 0.266 0.261 0 0.080-0.033 0.134-0.080 0.2l-0.88 1.277-0.987-1.444c-0.046-0.073-0.053-0.094-0.053-0.114 0-0.060 0.073-0.174 0.293-0.18v-0.161c-0.214 0.013-0.54 0.013-0.759 0.013-0.173 0-0.506 0-0.667-0.013v0.161c0.366 0 0.486 0.014 0.633 0.221l1.286 1.889-1.16 1.695c-0.286 0.414-0.719 0.422-0.847 0.422v0.161c0.152-0.013 0.406-0.013 0.566-0.013 0.18 0 0.493 0 0.659 0.013v-0.161c-0.206-0.020-0.266-0.153-0.266-0.261 0-0.086 0.033-0.134 0.066-0.181l1.067-1.557 1.16 1.705c0.052 0.074 0.052 0.094 0.052 0.114 0 0.052-0.060 0.167-0.293 0.181v0.161c0.214-0.013 0.54-0.013 0.759-0.013 0.173 0 0.506 0 0.668 0.013v-0.161c-0.427 0-0.494-0.033-0.627-0.221z"></path>
</svg>
