<!-- Generated by IcoMoon.io -->
<svg version="1.1" xmlns="http://www.w3.org/2000/svg" width="16" height="16" viewBox="0 0 16 16">
	<title>microphone-mute</title>
	<path d="M3.551 3.346l8.401 8.401 0.496-0.496-8.401-8.401z" fill="currentColor"></path>
	<path d="M9.040 9.824l-3.141-3.141v1.316c0 0 0 0 0 0.001 0 1.16 0.94 2.1 2.1 2.1 0.383 0 0.741-0.102 1.050-0.281l-0.010 0.005zM11.501 7.999c0 0.395-0.066 0.775-0.186 1.129l-0.57-0.57c0.036-0.168 0.056-0.361 0.056-0.559 0-0 0-0 0-0.001v0-0.7c0-0.193 0.157-0.35 0.35-0.35s0.35 0.157 0.35 0.35v0zM8 10.8c0.573 0 1.105-0.172 1.549-0.467l0.503 0.503c-0.475 0.348-1.056 0.581-1.687 0.645l-0.015 0.001v1.418h2.1c0.193 0 0.35 0.157 0.35 0.35s-0.157 0.35-0.35 0.35v0h-4.901c-0.193 0-0.35-0.157-0.35-0.35s0.157-0.35 0.35-0.35v0h2.1v-1.418c-1.777-0.184-3.151-1.673-3.151-3.483 0-0 0-0 0-0v0-0.7c0-0.193 0.157-0.35 0.35-0.35s0.35 0.157 0.35 0.35v0 0.7c0 1.547 1.254 2.8 2.8 2.8v0zM10.1 4.498v3.416l-4.090-4.090c0.29-0.835 1.071-1.424 1.989-1.424 1.159 0 2.1 0.939 2.101 2.098v0z"></path>
	</svg>
	