<!-- Generated by IcoMoon.io -->
<svg version="1.1" xmlns="http://www.w3.org/2000/svg" width="16" height="16" viewBox="0 0 16 16">
<title>microphone</title>
<path d="M5.906 4.5q0-0.875 0.609-1.484t1.484-0.609 1.484 0.609 0.609 1.484v0 3.5q0 0.875-0.609 1.484t-1.484 0.609-1.484-0.609-0.609-1.484v0-3.5zM4.844 6.953q0.156 0 0.258 0.102t0.102 0.242v0 0.703q0 1.156 0.82 1.977t1.977 0.82 1.977-0.82 0.82-1.977v0-0.703q0-0.141 0.102-0.242t0.258-0.102q0.141 0 0.242 0.102t0.102 0.242v0 0.703q0 0.672-0.234 1.281-0.25 0.609-0.672 1.070t-1 0.758q-0.563 0.297-1.234 0.375h-0.016v1.422h2.109q0.141 0 0.242 0.102t0.102 0.242-0.102 0.242-0.242 0.102v0h-4.906q-0.141 0-0.242-0.102t-0.102-0.242 0.102-0.242 0.242-0.102v0h2.109v-1.422q-0.672-0.078-1.25-0.375t-1-0.758-0.656-1.070q-0.25-0.609-0.25-1.281v0 0 0-0.703q0-0.141 0.102-0.242t0.242-0.102v0 0z"></path>
</svg>
