<!-- Generated by IcoMoon.io -->
<svg version="1.1" xmlns="http://www.w3.org/2000/svg" width="16" height="16" viewBox="0 0 16 16">
<title>mouse-pointer</title>
<path d="M3.144 2.621c-0.045-0.019-0.098-0.031-0.153-0.031-0.221 0-0.4 0.179-0.4 0.4 0 0.055 0.011 0.108 0.032 0.156l-0.001-0.003 4.174 10.019c0.062 0.146 0.204 0.246 0.369 0.246 0.175 0 0.324-0.112 0.378-0.269l0.001-0.003 1.275-3.754 3.336 3.336c0.072 0.072 0.172 0.117 0.283 0.117s0.211-0.045 0.283-0.117v0c0.072-0.072 0.117-0.172 0.117-0.283s-0.045-0.211-0.117-0.283v0l-3.336-3.336 3.754-1.275c0.159-0.055 0.271-0.204 0.271-0.379 0-0.165-0.1-0.307-0.244-0.368l-0.003-0.001zM3.733 3.733l8.145 3.393-3.361 1.141c-0.118 0.041-0.209 0.132-0.249 0.247l-0.001 0.003-1.141 3.361z"></path>
</svg>
