<!-- Generated by IcoMoon.io -->
<svg version="1.1" xmlns="http://www.w3.org/2000/svg" width="16" height="16" viewBox="0 0 16 16">
<title>organisator</title>
<path d="M8 2.891q-0.672 0-1.156 0.484t-0.484 1.172q0 0.672 0.484 1.156t1.156 0.484 1.156-0.484 0.484-1.156q0-0.688-0.484-1.172t-1.156-0.484v0zM8 3.547q0.406 0 0.695 0.289t0.289 0.711q0 0.406-0.289 0.695t-0.695 0.289-0.695-0.289-0.289-0.695q0-0.422 0.289-0.711t0.695-0.289v0zM5.031 5.531q-0.203 0-0.344 0.141t-0.141 0.344l-1.016 0.734q-0.063 0.047-0.102 0.117t-0.039 0.148v3.125h-0.656q-0.141 0-0.234 0.109t-0.094 0.219v2.313q0 0.125 0.094 0.227t0.234 0.102h10.531q0.141 0 0.234-0.102t0.094-0.227v-2.313q0-0.125-0.094-0.227t-0.234-0.102h-2.297v-1.484q0-0.422-0.266-0.766t-0.672-0.563q-0.406-0.234-0.93-0.359t-1.102-0.125-1.102 0.125-0.93 0.359q-0.406 0.219-0.672 0.563t-0.266 0.766v1.484h-0.984v-2.953l0.938-0.672h0.047q0.203 0 0.352-0.141t0.148-0.344q0-0.219-0.148-0.359t-0.352-0.141v0zM8 7.5q0.516 0 0.953 0.109t0.75 0.281q0.313 0.188 0.461 0.383t0.148 0.383v1.484h-4.625v-1.484q0-0.188 0.148-0.383t0.461-0.383q0.313-0.172 0.75-0.281t0.953-0.109v0zM3.063 10.797h9.875v1.656h-9.875v-1.656z"></path>
</svg>
