<!-- Generated by IcoMoon.io -->
<svg version="1.1" xmlns="http://www.w3.org/2000/svg" width="16" height="16" viewBox="0 0 16 16">
<title>pan-tool</title>
<path d="M7.981 3.202c-0.035 0.004-0.066 0.019-0.089 0.042l-1.349 1.349c-0.028 0.027-0.046 0.065-0.046 0.108 0 0.083 0.067 0.15 0.15 0.15 0.001 0 0.002-0 0.004-0h2.698c0.001 0 0.002 0 0.004 0 0.083 0 0.15-0.067 0.15-0.15 0-0.042-0.018-0.080-0.046-0.108l-1.349-1.349c-0.027-0.027-0.064-0.044-0.106-0.044-0.007 0-0.015 0.001-0.022 0.002l0.001-0zM8 3.568l0.984 0.984h-1.967zM4.684 6.5c-0.035 0.004-0.066 0.019-0.089 0.042l-1.349 1.349c-0.028 0.027-0.046 0.065-0.046 0.108s0.017 0.080 0.046 0.108l0 0 1.349 1.349c0.027 0.028 0.065 0.046 0.108 0.046 0.083 0 0.15-0.067 0.15-0.15 0-0.001-0-0.002-0-0.004v0-2.698c0-0 0-0.001 0-0.001 0-0.083-0.067-0.15-0.15-0.15-0.007 0-0.013 0-0.019 0.001l0.001-0zM11.279 6.5c-0.074 0.010-0.131 0.073-0.131 0.149 0 0 0 0.001 0 0.001v-0 2.698c-0 0.001-0 0.002-0 0.004 0 0.083 0.067 0.15 0.15 0.15 0.042 0 0.080-0.018 0.108-0.046l1.349-1.349c0.028-0.027 0.046-0.065 0.046-0.108s-0.017-0.080-0.046-0.108l-0-0-1.349-1.349c-0.027-0.027-0.064-0.044-0.106-0.044-0.007 0-0.015 0.001-0.022 0.002l0.001-0zM4.553 7.015v1.967l-0.984-0.984zM11.447 7.015l0.984 0.984-0.984 0.984zM8 7.1c-0.495 0-0.899 0.404-0.899 0.899s0.404 0.899 0.899 0.899c0.495 0 0.899-0.404 0.899-0.899s-0.404-0.899-0.899-0.899zM8 7.399c0.333 0 0.6 0.267 0.6 0.6s-0.267 0.6-0.6 0.6c-0.333 0-0.6-0.267-0.6-0.6s0.267-0.6 0.6-0.6zM6.623 11.147c-0.072 0.011-0.127 0.073-0.127 0.148 0 0.043 0.018 0.082 0.047 0.109l1.349 1.349c0.027 0.028 0.065 0.046 0.108 0.046s0.080-0.017 0.108-0.046l0-0 1.349-1.349c0.028-0.027 0.046-0.065 0.046-0.108 0-0.083-0.067-0.15-0.15-0.15-0.001 0-0.002 0-0.004 0h-2.698c-0.002-0-0.005-0-0.007-0s-0.005 0-0.007 0l0-0c-0.002-0-0.005-0-0.007-0s-0.005 0-0.007 0l0-0zM7.016 11.446h1.967l-0.984 0.984z"></path>
</svg>
