<!-- Generated by IcoMoon.io -->
<svg version="1.1" xmlns="http://www.w3.org/2000/svg" width="16" height="16" viewBox="0 0 16 16">
<title>participants</title>
<path d="M12.906 12.203l0.344-0.086t0.344-0.617q0-0.266-0.141-0.734-0.156-0.469-0.555-0.93t-1.070-0.789q-0.672-0.344-1.734-0.344-1.047 0-1.719 0.328-0.688 0.344-1.078 0.805t-0.547 0.93-0.156 0.734q0 0.531 0.352 0.617l0.352 0.086h5.609zM7.313 11.5h-0.016q0-0.141 0.109-0.492t0.422-0.711q0.297-0.344 0.836-0.617t1.43-0.273q0.906 0 1.445 0.273t0.836 0.617q0.297 0.359 0.414 0.711t0.117 0.492h-5.594zM10.094 7.297q0.594 0 1-0.406t0.406-0.984q0-0.594-0.406-1t-1-0.406v0q-0.578 0-0.984 0.406t-0.406 1q0 0.578 0.406 0.984t0.984 0.406v0 0zM12.203 5.906q0 0.859-0.617 1.477t-1.492 0.617q-0.859 0-1.477-0.617t-0.617-1.477v0q0-0.875 0.617-1.492t1.477-0.617q0.875 0 1.492 0.617t0.617 1.492v0zM7.25 8.891q-0.188-0.063-0.398-0.102t-0.445-0.070h-0.016q-0.109 0-0.234-0.008t-0.25-0.008v0 0 0q-1.063 0-1.734 0.328-0.672 0.344-1.070 0.805t-0.555 0.93q-0.141 0.469-0.141 0.734 0 0.344 0.172 0.523t0.516 0.18h2.953q-0.063-0.156-0.102-0.32t-0.039-0.352v-0.031q0-0.531 0.188-1.055t0.563-0.977q0.141-0.156 0.289-0.297t0.305-0.281v0zM5.844 9.406q-0.297 0.438-0.469 0.969t-0.172 1.125v0h-2.109q0-0.141 0.109-0.492t0.422-0.711q0.297-0.344 0.82-0.617t1.398-0.273v0zM3.453 6.25q0-0.875 0.617-1.484t1.477-0.609q0.875 0 1.492 0.609t0.617 1.484v0q0 0.875-0.617 1.484t-1.492 0.609q-0.859 0-1.477-0.609t-0.617-1.484v0 0zM5.547 4.844q-0.578 0-0.984 0.414t-0.406 0.992 0.406 0.992 0.984 0.414v0q0.578 0 0.992-0.414t0.414-0.992-0.414-0.992-0.992-0.414v0 0z"></path>
</svg>
