<!-- Generated by IcoMoon.io -->
<svg version="1.1" xmlns="http://www.w3.org/2000/svg" width="16" height="16" viewBox="0 0 16 16">
<title>pen-tool</title>
<path d="M12.024 2.758l0.106-0.106c0.156-0.156 0.371-0.252 0.609-0.252 0.475 0 0.861 0.385 0.861 0.861 0 0.238-0.096 0.453-0.252 0.609v0l-0.106 0.106c0.168 0.188 0.271 0.438 0.271 0.712 0 0.295-0.12 0.563-0.313 0.756l-7.338 7.339c-0.045 0.044-0.101 0.077-0.164 0.093l-0.002 0.001-2.852 0.713c-0.026 0.007-0.056 0.011-0.086 0.011-0.197 0-0.357-0.16-0.357-0.357 0-0.031 0.004-0.060 0.011-0.089l-0.001 0.002 0.713-2.852c0.017-0.065 0.049-0.121 0.093-0.165l6.875-6.875c-0.057-0.041-0.128-0.065-0.205-0.065-0.099 0-0.188 0.040-0.253 0.105l-2.347 2.348c-0.065 0.065-0.154 0.105-0.252 0.105-0.197 0-0.357-0.16-0.357-0.357 0-0.099 0.040-0.188 0.105-0.252l2.349-2.347c0.194-0.194 0.461-0.313 0.756-0.313 0.274 0 0.524 0.103 0.714 0.273l-0.001-0.001c0.188-0.169 0.438-0.272 0.713-0.272s0.524 0.103 0.713 0.272l-0.001-0.001zM11.565 3.305c-0.065-0.064-0.154-0.104-0.252-0.104s-0.188 0.040-0.252 0.104l-7.271 7.269-0.545 2.18 2.18-0.545 7.271-7.269c0.065-0.065 0.105-0.154 0.105-0.252s-0.040-0.188-0.105-0.252v0l-1.13-1.13z"></path>
</svg>
