<!-- Generated by IcoMoon.io -->
<svg version="1.1" xmlns="http://www.w3.org/2000/svg" width="16" height="16" viewBox="0 0 16 16">
<title>pointer-tool</title>
<path d="M8 3.844c-2.289 0-4.156 1.867-4.156 4.156s1.867 4.156 4.156 4.156c2.289 0 4.156-1.867 4.156-4.156s-1.867-4.156-4.156-4.156zM8 4.891c1.723 0 3.109 1.386 3.109 3.109s-1.386 3.109-3.109 3.109c-1.723 0-3.109-1.386-3.109-3.109s1.386-3.109 3.109-3.109z"></path>
<path d="M9.604 8c0 0.886-0.718 1.604-1.604 1.604v0c-0.886 0-1.604-0.718-1.604-1.604v0c0-0.886 0.718-1.604 1.604-1.604v0c0.886 0 1.604 0.718 1.604 1.604v0z"></path>
<path d="M8 3.2c-2.65 0-4.8 2.15-4.8 4.8s2.15 4.8 4.8 4.8c2.65 0 4.8-2.15 4.8-4.8s-2.15-4.8-4.8-4.8zM8 3.396c2.544 0 4.604 2.060 4.604 4.604s-2.060 4.604-4.604 4.604c-2.544 0-4.604-2.060-4.604-4.604s2.060-4.604 4.604-4.604z"></path>
</svg>
