<!-- Generated by IcoMoon.io -->
<svg version="1.1" xmlns="http://www.w3.org/2000/svg" width="16" height="16" viewBox="0 0 16 16">
<title>prev-page</title>
<path d="M13.6 8c0 0.387-0.313 0.7-0.7 0.7h-8.109l3.005 3.004c0.127 0.127 0.205 0.302 0.205 0.496 0 0.387-0.314 0.701-0.701 0.701-0.194 0-0.369-0.078-0.496-0.205l-4.2-4.2c-0.127-0.127-0.206-0.302-0.206-0.496s0.079-0.369 0.206-0.496l4.2-4.2c0.127-0.127 0.302-0.205 0.496-0.205 0.387 0 0.701 0.314 0.701 0.701 0 0.194-0.078 0.369-0.205 0.496l-3.005 3.004h8.109c0.387 0 0.7 0.313 0.7 0.7v0z"></path>
</svg>
