<!-- Generated by IcoMoon.io -->
<svg version="1.1" xmlns="http://www.w3.org/2000/svg" width="16" height="16" viewBox="0 0 16 16">
<title>quiz</title>
<path d="M12.547 4.5q0.141 0 0.25 0.102t0.109 0.242v0 6.313q0 0.141-0.109 0.242t-0.25 0.102h-9.094q-0.141 0-0.25-0.102t-0.109-0.242v-6.313q0-0.141 0.109-0.242t0.25-0.102v0h9.094zM3.453 3.797q-0.438 0-0.742 0.313t-0.305 0.734v0 6.313q0 0.422 0.305 0.734t0.742 0.313h9.094q0.438 0 0.742-0.313t0.305-0.734v0-6.313q0-0.422-0.305-0.734t-0.742-0.313v0h-9.094zM7.422 6.422q0-0.141 0.102-0.242t0.258-0.102h3.5q0.141 0 0.242 0.102t0.102 0.242-0.102 0.25-0.242 0.109v0h-3.5q-0.156 0-0.258-0.109t-0.102-0.25v0 0zM6.375 5.828q0.047 0.047 0.078 0.109t0.031 0.141q0 0.063-0.031 0.133t-0.078 0.117v0l-1.047 1.047q-0.047 0.047-0.109 0.070t-0.141 0.023q-0.063 0-0.133-0.023t-0.117-0.070v0l-0.344-0.359q-0.047-0.047-0.078-0.109t-0.031-0.125q0-0.156 0.102-0.258t0.258-0.102q0.063 0 0.133 0.031t0.117 0.078v0l0.094 0.094 0.813-0.797q0.047-0.047 0.109-0.078t0.125-0.031q0.078 0 0.141 0.031t0.109 0.078v0 0zM7.422 9.219q0-0.141 0.102-0.242t0.258-0.102h3.5q0.141 0 0.242 0.102t0.102 0.242q0 0.156-0.102 0.258t-0.242 0.102v0h-3.5q-0.156 0-0.258-0.102t-0.102-0.258v0 0zM6.375 8.625q0.047 0.047 0.078 0.109t0.031 0.141-0.031 0.141-0.078 0.109v0l-1.047 1.047q-0.047 0.047-0.109 0.078t-0.141 0.031q-0.063 0-0.133-0.031t-0.117-0.078v0l-0.344-0.344q-0.047-0.047-0.078-0.117t-0.031-0.133q0-0.141 0.102-0.25t0.258-0.109q0.063 0 0.133 0.031t0.117 0.078v0l0.094 0.109 0.813-0.813q0.047-0.047 0.109-0.070t0.125-0.023q0.078 0 0.141 0.023t0.109 0.070v0 0z"></path>
</svg>
