<!-- Generated by IcoMoon.io -->
<svg version="1.1" xmlns="http://www.w3.org/2000/svg" width="16" height="16" viewBox="0 0 16 16">
<title>rubber-tool</title>
<path d="M13.327 6.507c0.169-0.169 0.273-0.402 0.273-0.66s-0.104-0.491-0.273-0.66v0l-2.508-2.514c-0.169-0.169-0.402-0.273-0.66-0.273s-0.491 0.104-0.66 0.273l-6.825 6.82c-0.169 0.169-0.273 0.402-0.273 0.66s0.104 0.491 0.273 0.66v0l2.508 2.514c0.133 0.132 0.307 0.224 0.5 0.257l0.005 0.001c0.021 0.009 0.046 0.015 0.073 0.015h6.012c0.103 0 0.187-0.084 0.187-0.187s-0.084-0.187-0.187-0.187v0h-5.172l0.373-0.373h3.826c0.103 0 0.187-0.084 0.187-0.187s-0.084-0.187-0.187-0.187v0h-3.451l0.373-0.373h3.078c0.103 0 0.187-0.084 0.187-0.187s-0.084-0.187-0.187-0.187v0h-2.704l0.233-0.231zM10.107 3.388c0.034-0.034 0.081-0.055 0.133-0.055s0.099 0.021 0.133 0.055l2.24 2.24c0.034 0.034 0.055 0.081 0.055 0.133s-0.021 0.099-0.055 0.133l-0 0c-0.034 0.034-0.081 0.055-0.133 0.055s-0.099-0.021-0.133-0.055l-2.24-2.24c-0.034-0.034-0.055-0.081-0.055-0.133s0.021-0.099 0.055-0.132l0-0zM6.236 13.062c-0.102 0.098-0.242 0.158-0.395 0.158s-0.292-0.060-0.395-0.159l-2.508-2.508c-0.101-0.101-0.163-0.241-0.163-0.395s0.062-0.294 0.163-0.395l-0 0 1.702-1.695 3.29 3.29z"></path>
</svg>
