<!-- Generated by IcoMoon.io -->
<svg version="1.1" xmlns="http://www.w3.org/2000/svg" width="16" height="16" viewBox="0 0 16 16">
<title>select-group-tool</title>
<path d="M13.279 10.921c-0.177 0-0.322 0.144-0.322 0.322v1.286h-1.286c-0.177 0-0.322 0.144-0.322 0.322s0.144 0.322 0.322 0.322h1.608c0.177 0 0.322-0.144 0.322-0.322v-1.608c0-0.178-0.144-0.322-0.322-0.322zM9.836 12.528h-3.671c-0.177 0-0.322 0.144-0.322 0.322s0.144 0.322 0.322 0.322h3.671c0.177 0 0.322-0.144 0.322-0.322s-0.144-0.322-0.322-0.322zM4.329 12.528h-1.286v-1.286c0-0.177-0.144-0.322-0.322-0.322s-0.322 0.144-0.322 0.322v1.608c0 0.177 0.144 0.322 0.322 0.322h1.608c0.177 0 0.322-0.144 0.322-0.322s-0.144-0.322-0.322-0.322zM2.722 9.943c0.177 0 0.322-0.144 0.322-0.322v-3.242c0-0.177-0.144-0.322-0.322-0.322s-0.322 0.144-0.322 0.322v3.242c0 0.178 0.144 0.322 0.322 0.322zM4.329 2.829h-1.608c-0.177 0-0.322 0.144-0.322 0.322v1.608c0 0.177 0.144 0.322 0.322 0.322s0.322-0.144 0.322-0.322v-1.286h1.286c0.177 0 0.322-0.144 0.322-0.322s-0.144-0.322-0.322-0.322zM9.836 2.829h-3.671c-0.177 0-0.322 0.144-0.322 0.322s0.144 0.322 0.322 0.322h3.671c0.177 0 0.322-0.144 0.322-0.322s-0.144-0.322-0.322-0.322zM13.279 2.829h-1.608c-0.177 0-0.322 0.144-0.322 0.322s0.144 0.322 0.322 0.322h1.286v1.286c0 0.177 0.144 0.322 0.322 0.322s0.322-0.144 0.322-0.322v-1.608c0-0.177-0.144-0.322-0.322-0.322zM13.279 6.057c-0.177 0-0.322 0.144-0.322 0.322v3.242c0 0.177 0.144 0.322 0.322 0.322s0.322-0.144 0.322-0.322v-3.242c0-0.178-0.144-0.322-0.322-0.322z"></path>
</svg>
