<!-- Generated by IcoMoon.io -->
<svg version="1.1" xmlns="http://www.w3.org/2000/svg" width="16" height="16" viewBox="0 0 16 16">
<title>select-tool</title>
<path d="M6.877 7.609c0.038-0.097 0.013-0.206-0.063-0.277l-3.99-3.698c-0.073-0.068-0.18-0.086-0.272-0.046s-0.151 0.131-0.151 0.231v6.034c0 0.111 0.073 0.209 0.179 0.241 0.024 0.007 0.049 0.011 0.073 0.011 0.083 0 0.162-0.041 0.21-0.112l1.48-2.221 2.301-0.002c0.104 0 0.197-0.063 0.234-0.16zM4.206 7.268c-0.084 0-0.163 0.042-0.21 0.112l-1.092 1.64v-4.623l3.095 2.869zM13.474 8.785l-1.1-0.635c-0.078-0.045-0.174-0.045-0.252 0s-0.126 0.128-0.126 0.218v0.369h-1.573v-1.559h0.383c0.001 0 0.002 0 0.003 0 0.139 0 0.252-0.113 0.252-0.252 0-0.058-0.020-0.111-0.052-0.154l-0.619-1.072c-0.045-0.078-0.128-0.126-0.218-0.126s-0.173 0.048-0.218 0.126l-0.635 1.1c-0.045 0.078-0.045 0.174 0 0.252s0.128 0.126 0.218 0.126h0.383v1.559h-1.574v-0.369c0-0.090-0.048-0.173-0.126-0.218s-0.174-0.045-0.252 0l-1.1 0.635c-0.078 0.045-0.126 0.128-0.126 0.218s0.048 0.173 0.126 0.218l1.1 0.635c0.039 0.023 0.083 0.034 0.126 0.034s0.087-0.011 0.126-0.034c0.078-0.045 0.126-0.128 0.126-0.218v-0.397h1.574v1.587h-0.383c-0.090 0-0.173 0.048-0.218 0.126s-0.045 0.174 0 0.252l0.635 1.1c0.045 0.078 0.128 0.126 0.218 0.126s0.173-0.048 0.218-0.126l0.635-1.1c0.045-0.078 0.045-0.174 0-0.252s-0.128-0.126-0.218-0.126h-0.383v-1.587h1.573v0.397c0 0.090 0.048 0.173 0.126 0.218 0.039 0.023 0.083 0.034 0.126 0.034s0.087-0.011 0.126-0.034l1.1-0.635c0.078-0.045 0.126-0.128 0.126-0.218s-0.048-0.174-0.126-0.219zM10.17 6.33l0.198 0.343h-0.396zM7.84 9.202l-0.343-0.198 0.343-0.198zM10.17 11.677l-0.198-0.343h0.396zM12.5 9.202v-0.396l0.343 0.198z"></path>
</svg>
