<!-- Generated by IcoMoon.io -->
<svg version="1.1" xmlns="http://www.w3.org/2000/svg" width="16" height="16" viewBox="0 0 16 16">
<title>send-message</title>
<path d="M13.5 2.5q0.047 0.047 0.070 0.117t0.023 0.133v0.078t-0.016 0.063v0l-4.156 10.375q-0.063 0.141-0.195 0.234t-0.305 0.094q-0.141 0-0.258-0.063t-0.18-0.172v0l-2.281-3.563-3.563-2.281q-0.109-0.063-0.172-0.18t-0.063-0.258q0-0.172 0.094-0.305t0.234-0.195v0l10.375-4.156q0.031 0 0.063-0.008t0.078-0.008q0.063 0 0.133 0.023t0.117 0.070v0 0zM6.922 9.578l1.969 3.094 3.375-8.438zM11.766 3.734l-8.438 3.375 3.094 1.969 5.344-5.344z"></path>
</svg>
