<!-- Generated by IcoMoon.io -->
<svg version="1.1" xmlns="http://www.w3.org/2000/svg" width="16" height="16" viewBox="0 0 16 16">
<title>settings</title>
<path d="M10.453 3.453v0 0q-0.438 0-0.742 0.305t-0.305 0.742 0.305 0.742 0.742 0.305v0 0 0q0.438 0 0.742-0.305t0.305-0.742-0.305-0.742-0.742-0.305v0 0zM8.734 4.156q0.125-0.609 0.602-1.008t1.117-0.398q0.625 0 1.102 0.398t0.602 0.992l0.016 0.016h1.422v0.688h-1.422q-0.125 0.609-0.609 1.008t-1.109 0.398q-0.641 0-1.117-0.398t-0.602-0.992v-0.016h-6.328v-0.688h6.328zM5.547 6.953q-0.438 0-0.742 0.305t-0.305 0.742 0.305 0.742 0.742 0.305v0q0.438 0 0.742-0.305t0.305-0.742-0.305-0.742-0.742-0.305v0zM3.828 7.656q0.125-0.609 0.609-1.008t1.109-0.398q0.641 0 1.117 0.398t0.602 0.992v0.016h6.328v0.688h-6.328q-0.125 0.609-0.602 1.008t-1.117 0.398q-0.625 0-1.102-0.398t-0.602-0.992l-0.016-0.016h-1.422v-0.688h1.422zM10.453 10.453q-0.438 0-0.742 0.305t-0.305 0.742 0.305 0.742 0.742 0.305v0q0.438 0 0.742-0.305t0.305-0.742-0.305-0.742-0.742-0.305v0zM8.734 11.156q0.125-0.609 0.602-1.008t1.117-0.398q0.625 0 1.102 0.398t0.602 0.992l0.016 0.016h1.422v0.688h-1.422q-0.125 0.609-0.609 1.008t-1.109 0.398q-0.641 0-1.117-0.398t-0.602-0.992v-0.016h-6.328v-0.688h6.328z"></path>
</svg>
