<!-- Generated by IcoMoon.io -->
<svg version="1.1" xmlns="http://www.w3.org/2000/svg" width="16" height="16" viewBox="0 0 16 16">
<title>share-screen</title>
<path d="M3.8 12.9c-0.387 0-0.7-0.313-0.7-0.7v0-8.4c0-0.387 0.313-0.7 0.7-0.7v0h8.4c0.387 0 0.7 0.313 0.7 0.7v0 8.4c0 0.387-0.313 0.7-0.7 0.7v0h-3.15c-0.387 0-0.7-0.313-0.7-0.7v0-5.105l1.852 1.853c0.063 0.063 0.151 0.103 0.248 0.103 0.194 0 0.35-0.157 0.35-0.35 0-0.097-0.039-0.184-0.103-0.248l-2.45-2.45c-0.063-0.064-0.151-0.103-0.248-0.103s-0.184 0.039-0.248 0.103v0l-2.45 2.45c-0.063 0.063-0.103 0.151-0.103 0.248 0 0.194 0.157 0.35 0.35 0.35 0.097 0 0.184-0.039 0.248-0.103l1.852-1.853v5.105c0 0.773 0.627 1.4 1.4 1.4v0h3.15c0.773 0 1.4-0.627 1.4-1.4v0-8.4c0-0.773-0.627-1.4-1.4-1.4v0h-8.4c-0.773 0-1.4 0.627-1.4 1.4v0 8.4c0 0.773 0.627 1.4 1.4 1.4v0h1.75c0.193 0 0.35-0.157 0.35-0.35s-0.157-0.35-0.35-0.35v0z"></path>
</svg>
