<!-- Generated by IcoMoon.io -->
<svg version="1.1" xmlns="http://www.w3.org/2000/svg" width="16" height="16" viewBox="0 0 16 16">
<title>text-select-tool</title>
<path d="M2.4 10.897h7.338v-5.793h-7.338zM3.559 9.738h0.772v-3.476h-0.772v-0.386h2.317v0.386h-0.772v1.545h1.931v-1.545h-0.772v-0.386h2.317v0.386h-0.772v3.476h0.772v0.386h-2.317v-0.386h0.772v-1.545h-1.931v1.545h0.772v0.386h-2.317zM13.214 11.283c0.232 0 0.386 0.154 0.386 0.386s-0.154 0.386-0.386 0.386c-0.463 0-0.888-0.232-1.159-0.541-0.27 0.348-0.695 0.541-1.159 0.541-0.232 0-0.386-0.154-0.386-0.386s0.154-0.386 0.386-0.386c0.425 0 0.772-0.348 0.772-0.772h-0.772v-0.772h0.772v-4.248c0-0.425-0.348-0.772-0.772-0.772-0.232 0-0.386-0.154-0.386-0.386s0.154-0.386 0.386-0.386c0.463 0 0.888 0.232 1.159 0.541 0.27-0.348 0.695-0.541 1.159-0.541 0.232 0 0.386 0.154 0.386 0.386s-0.154 0.386-0.386 0.386c-0.425 0-0.772 0.348-0.772 0.772v4.248h0.772v0.772h-0.772c0 0.425 0.348 0.772 0.772 0.772z"></path>
</svg>
