<!-- Generated by IcoMoon.io -->
<svg version="1.1" xmlns="http://www.w3.org/2000/svg" width="16" height="16" viewBox="0 0 16 16">
<title>whiteboard-tool</title>
<path d="M13.040 4.086h-10.080c-0.314 0-0.56 0.246-0.56 0.56v6.709c0 0.314 0.246 0.56 0.56 0.56h10.080c0.314 0 0.56-0.246 0.56-0.56v-6.709c0-0.314-0.246-0.56-0.56-0.56zM5.021 11.534v-0.179c0-0.101 0.090-0.19 0.19-0.19h1.49c0.101 0 0.19 0.078 0.19 0.19v0.19h-1.87zM13.23 11.343c0 0.101-0.078 0.19-0.19 0.19h-5.779v-0.19c0-0.302-0.246-0.56-0.56-0.56h-1.49c-0.314 0-0.56 0.246-0.56 0.56v0.179h-1.68c-0.101 0-0.19-0.078-0.19-0.19v-2.61c0.224-0.011 0.426-0.045 0.605-0.112 0.101-0.034 0.146-0.146 0.112-0.235-0.034-0.101-0.146-0.146-0.235-0.112-0.134 0.045-0.302 0.078-0.482 0.090v-3.707c0-0.101 0.078-0.19 0.19-0.19h10.080c0.101 0 0.19 0.078 0.19 0.19v6.698zM6.096 6.225c-0.101-0.034-0.202 0.011-0.246 0.101-0.034 0.101 0.011 0.202 0.101 0.246 0.179 0.067 0.325 0.202 0.47 0.414 0.034 0.056 0.090 0.078 0.157 0.078 0.034 0 0.078-0.011 0.101-0.034 0.090-0.056 0.112-0.179 0.045-0.258-0.179-0.28-0.381-0.448-0.627-0.549zM5.256 6.169c-0.291 0.067-0.515 0.224-0.717 0.47-0.056 0.078-0.045 0.202 0.034 0.258 0.034 0.022 0.067 0.034 0.112 0.034 0.056 0 0.112-0.022 0.146-0.078 0.134-0.19 0.291-0.291 0.493-0.336 0.101-0.022 0.168-0.123 0.146-0.224-0.011-0.090-0.112-0.146-0.213-0.123zM4.416 7.233c-0.090-0.045-0.202-0.011-0.246 0.078-0.101 0.19-0.213 0.414-0.37 0.582-0.067 0.078-0.067 0.19 0.011 0.258 0.034 0.034 0.078 0.045 0.123 0.045 0.056 0 0.101-0.022 0.134-0.067 0.19-0.213 0.314-0.459 0.426-0.672 0.056-0.067 0.011-0.179-0.078-0.224zM7.115 7.434c-0.045-0.090-0.168-0.123-0.258-0.067-0.090 0.045-0.123 0.168-0.067 0.258 0.112 0.202 0.258 0.448 0.47 0.65 0.034 0.034 0.078 0.056 0.134 0.056 0.045 0 0.101-0.022 0.134-0.056 0.067-0.078 0.067-0.19 0-0.269-0.179-0.179-0.314-0.392-0.414-0.571zM8.56 8.364v0c-0.168 0-0.347-0.022-0.493-0.056-0.101-0.022-0.202 0.034-0.224 0.134s0.034 0.202 0.134 0.224c0.179 0.045 0.37 0.067 0.582 0.067 0 0 0 0 0 0 0.101 0 0.19-0.078 0.19-0.19 0-0.090-0.078-0.179-0.19-0.179zM11.864 5.9c-0.213-0.213-0.582-0.213-0.795 0l-1.646 1.646c-0.022 0.022-0.045 0.056-0.045 0.090l-0.19 0.829c-0.011 0.067 0 0.123 0.056 0.168 0.034 0.034 0.078 0.056 0.134 0.056 0.011 0 0.022 0 0.045 0l0.829-0.179c0.034-0.011 0.067-0.022 0.090-0.045l1.635-1.658c0.101-0.101 0.168-0.246 0.168-0.392s-0.056-0.291-0.168-0.392zM9.714 7.826l0.336 0.336-0.426 0.101zM11.707 6.55l-1.378 1.366-0.381-0.381 1.378-1.378c0.067-0.067 0.19-0.067 0.269 0l0.112 0.112c0.034 0.034 0.056 0.078 0.056 0.134s-0.022 0.101-0.056 0.146zM13.040 4.086h-10.080c-0.314 0-0.56 0.246-0.56 0.56v6.709c0 0.314 0.246 0.56 0.56 0.56h10.080c0.314 0 0.56-0.246 0.56-0.56v-6.709c0-0.314-0.246-0.56-0.56-0.56zM5.021 11.534v-0.179c0-0.101 0.090-0.19 0.19-0.19h1.49c0.101 0 0.19 0.078 0.19 0.19v0.19h-1.87zM13.23 11.343c0 0.101-0.078 0.19-0.19 0.19h-5.779v-0.19c0-0.302-0.246-0.56-0.56-0.56h-1.49c-0.314 0-0.56 0.246-0.56 0.56v0.179h-1.68c-0.101 0-0.19-0.078-0.19-0.19v-2.61c0.224-0.011 0.426-0.045 0.605-0.112 0.101-0.034 0.146-0.146 0.112-0.235-0.034-0.101-0.146-0.146-0.235-0.112-0.134 0.045-0.302 0.078-0.482 0.090v-3.707c0-0.101 0.078-0.19 0.19-0.19h10.080c0.101 0 0.19 0.078 0.19 0.19v6.698zM6.096 6.225c-0.101-0.034-0.202 0.011-0.246 0.101-0.034 0.101 0.011 0.202 0.101 0.246 0.179 0.067 0.325 0.202 0.47 0.414 0.034 0.056 0.090 0.078 0.157 0.078 0.034 0 0.078-0.011 0.101-0.034 0.090-0.056 0.112-0.179 0.045-0.258-0.179-0.28-0.381-0.448-0.627-0.549zM5.256 6.169c-0.291 0.067-0.515 0.224-0.717 0.47-0.056 0.078-0.045 0.202 0.034 0.258 0.034 0.022 0.067 0.034 0.112 0.034 0.056 0 0.112-0.022 0.146-0.078 0.134-0.19 0.291-0.291 0.493-0.336 0.101-0.022 0.168-0.123 0.146-0.224-0.011-0.090-0.112-0.146-0.213-0.123zM4.416 7.233c-0.090-0.045-0.202-0.011-0.246 0.078-0.101 0.19-0.213 0.414-0.37 0.582-0.067 0.078-0.067 0.19 0.011 0.258 0.034 0.034 0.078 0.045 0.123 0.045 0.056 0 0.101-0.022 0.134-0.067 0.19-0.213 0.314-0.459 0.426-0.672 0.056-0.067 0.011-0.179-0.078-0.224zM7.115 7.434c-0.045-0.090-0.168-0.123-0.258-0.067-0.090 0.045-0.123 0.168-0.067 0.258 0.112 0.202 0.258 0.448 0.47 0.65 0.034 0.034 0.078 0.056 0.134 0.056 0.045 0 0.101-0.022 0.134-0.056 0.067-0.078 0.067-0.19 0-0.269-0.179-0.179-0.314-0.392-0.414-0.571zM8.56 8.364v0c-0.168 0-0.347-0.022-0.493-0.056-0.101-0.022-0.202 0.034-0.224 0.134s0.034 0.202 0.134 0.224c0.179 0.045 0.37 0.067 0.582 0.067 0 0 0 0 0 0 0.101 0 0.19-0.078 0.19-0.19 0-0.090-0.078-0.179-0.19-0.179zM11.864 5.9c-0.213-0.213-0.582-0.213-0.795 0l-1.646 1.646c-0.022 0.022-0.045 0.056-0.045 0.090l-0.19 0.829c-0.011 0.067 0 0.123 0.056 0.168 0.034 0.034 0.078 0.056 0.134 0.056 0.011 0 0.022 0 0.045 0l0.829-0.179c0.034-0.011 0.067-0.022 0.090-0.045l1.635-1.658c0.101-0.101 0.168-0.246 0.168-0.392s-0.056-0.291-0.168-0.392zM9.714 7.826l0.336 0.336-0.426 0.101zM11.707 6.55l-1.378 1.366-0.381-0.381 1.378-1.378c0.067-0.067 0.19-0.067 0.269 0l0.112 0.112c0.034 0.034 0.056 0.078 0.056 0.134s-0.022 0.101-0.056 0.146z"></path>
</svg>
