<!-- Generated by IcoMoon.io -->
<svg version="1.1" xmlns="http://www.w3.org/2000/svg" width="16" height="16" viewBox="0 0 16 16">
<title>zoom-in-tool</title>
<path d="M13.463 12.597c-0.222 0.288-0.636 0.342-0.924 0.12l-0.35-0.269 0.803-1.044 0.35 0.269c0.288 0.222 0.342 0.635 0.121 0.923zM12.001 12.302l-2.748-2.114c-0.749 0.704-1.733 1.099-2.785 1.099-0.904 0-1.761-0.292-2.479-0.845-0.862-0.663-1.414-1.622-1.554-2.7s0.147-2.146 0.81-3.008c0.776-1.009 1.953-1.588 3.228-1.588 0.904 0 1.761 0.292 2.48 0.845 1.601 1.232 2.030 3.429 1.102 5.153l2.748 2.115zM9.010 9.17c1.077-1.4 0.814-3.416-0.585-4.493-0.565-0.435-1.24-0.665-1.951-0.665-1.004 0-1.93 0.456-2.542 1.25-0.522 0.678-0.748 1.519-0.638 2.368s0.545 1.603 1.223 2.125c0.565 0.435 1.24 0.665 1.951 0.665 1.004-0 1.93-0.456 2.542-1.25zM8.776 6.759h-1.752v-1.752h-1.106v1.752h-1.752v1.106h1.752v1.752h1.106v-1.752h1.752z"></path>
</svg>
